<svg width="10" height="13" viewBox="0 0 10 13" fill="none" xmlns="http://www.w3.org/2000/svg">
<path d="M1.07153 5.875H8.31763C8.97388 5.875 9.32935 5.08203 8.83716 4.58984L5.22778 0.871094C5.09106 0.707031 4.89966 0.625 4.70825 0.625C4.51685 0.625 4.2981 0.707031 4.16138 0.871094L0.552002 4.58984C0.0598145 5.08203 0.415283 5.875 1.07153 5.875ZM8.31763 7.625H1.07153C0.415283 7.625 0.0598145 8.44531 0.552002 8.9375L4.16138 12.6562C4.2981 12.8203 4.4895 12.875 4.70825 12.875C4.89966 12.875 5.09106 12.8203 5.22778 12.6562L8.83716 8.9375C9.32935 8.44531 8.97388 7.625 8.31763 7.625Z" fill="#9A9A9A"/>
</svg>
